<svg width="1302" height="621" viewBox="0 0 1302 621" fill="none" xmlns="http://www.w3.org/2000/svg">
<path d="M746.439 0.651181C750.639 1.4808 752.972 2.41411 756.135 4.59185C757.483 5.52516 761.528 7.75475 765.157 9.51768C771.639 12.7324 781.179 18.2286 791.549 24.71C794.557 26.5766 797.72 28.547 798.549 29.0655C810.838 36.2209 815.919 39.8505 817.215 42.443C817.682 43.3245 818.097 45.2429 818.149 46.7985C818.252 49.0799 818.045 49.8058 817.008 50.8947C814.415 53.6428 810.941 53.5909 799.586 50.6873C779.987 45.6059 774.542 44.3096 768.32 43.1689C760.905 41.7689 754.113 41.5615 751.106 42.5467C742.498 45.3985 733.01 54.9391 728.291 65.4648C726.321 69.7684 723.78 78.6868 723.106 83.5089C721.965 92.2198 722.795 105.286 725.232 115.501C726.425 120.634 731.195 137.952 733.839 146.611C738.558 162.322 743.172 180.003 744.883 189.077C746.387 197.01 747.113 198.566 750.483 200.899C751.987 201.936 753.543 203.388 753.906 204.114C754.32 204.84 755.928 211.425 757.587 218.684C762.098 239.01 763.809 244.973 765.261 245.336C765.624 245.439 769.15 246.424 773.142 247.461C783.201 250.158 812.393 259.906 822.608 264.002C846.511 273.646 853.304 279.246 853.407 289.461C853.459 298.742 842.104 311.549 825.512 320.934C814.519 327.156 794.505 335.297 776.512 340.949C760.024 346.082 757.276 346.911 745.92 349.815C712.373 358.474 683.803 362 648.441 362C624.901 362 610.642 360.859 590.368 357.333C559.776 351.993 528.25 341.778 503.518 329.23C473.548 313.986 454 296.772 454 285.624C454 280.076 457.318 276.239 467.118 270.379C479.77 262.757 506.266 253.424 542.924 243.521C554.124 240.513 555.472 239.995 558.013 237.247C561.694 233.358 564.909 226.306 569.887 211.166C574.398 197.477 575.435 195.455 581.449 189.025C586.635 183.374 588.657 179.796 593.738 167.611C594.775 165.018 596.331 161.544 597.212 159.833C598.094 158.122 599.908 153.559 601.257 149.722C602.605 145.886 604.679 140.286 605.871 137.33C607.064 134.426 608.256 130.797 608.567 129.293C609.501 124.99 611.108 120.271 613.545 114.723C614.841 111.871 617.382 106.012 619.249 101.76C621.115 97.4568 623.293 92.6865 624.123 91.131C625.471 88.5384 628.582 81.746 632.678 72.4647C633.456 70.598 635.737 65.9314 637.656 62.0945C639.574 58.2575 641.596 53.3835 642.167 51.3095C643.411 46.7985 644.604 44.6726 648.13 40.7838C649.582 39.1764 651.656 36.7912 652.693 35.495C656.322 31.1395 665.033 25.3322 676.959 19.3694C680.225 17.7101 683.129 16.1546 683.44 15.9472C686.136 13.8213 701.951 7.02884 710.403 4.38445C722.588 0.59933 738.039 -1.00805 746.439 0.651181ZM733.58 23.4656C732.076 26.784 733.321 34.1987 735.81 36.895C737.365 38.5542 737.676 38.5542 739.647 36.895C741.928 34.9765 741.721 32.4358 738.817 27.0951C737.935 25.4359 735.084 22.1693 734.513 22.1693C734.306 22.1693 733.891 22.7397 733.58 23.4656ZM707.81 42.1319C707.966 43.4282 708.588 45.8133 709.158 47.4725C710.506 51.3095 710.973 57.1686 710.195 60.3316C709.469 63.2352 707.499 66.087 704.647 68.3684C702.936 69.7166 702.314 69.924 700.81 69.6129C697.025 68.9388 693.033 68.524 693.033 68.8351C693.033 69.7166 696.403 72.1536 701.432 74.8498C704.699 76.5609 707.136 78.2201 707.343 78.7905C707.81 80.346 706.255 82.2126 704.129 82.6274C702.625 82.8867 701.432 82.5756 697.958 81.0719C693.136 78.9979 692.514 78.8942 692.514 79.9312C692.514 80.8645 695.625 83.6644 699.721 86.4644C702.158 88.0718 703.247 89.2125 703.973 90.8717C704.492 92.0643 705.736 97.8197 706.721 103.627C708.225 112.545 708.432 114.827 708.121 118.145C707.862 120.323 707.499 122.397 707.292 122.812C706.203 124.73 704.492 125.975 701.847 126.753C699.255 127.478 694.07 129.812 694.07 130.227C694.07 130.589 697.855 130.382 703.143 129.708C709.106 128.93 711.491 129.19 712.373 130.641C713.306 132.093 711.18 134.012 705.218 137.071C696.455 141.53 693.914 143.086 694.536 143.5C695.21 143.863 696.507 143.863 706.773 143.241C712.269 142.93 713.669 143.034 714.499 143.604C715.432 144.33 715.432 144.434 714.603 146.145C712.943 149.619 706.929 152.522 700.24 153.145C697.855 153.352 695.418 153.663 694.847 153.871C693.914 154.182 694.018 154.337 695.47 155.115C697.388 156.1 701.381 156.982 710.869 158.537C714.551 159.159 718.025 159.885 718.543 160.145C719.995 160.922 719.632 162.737 717.506 165.381C715.484 167.974 713.877 168.752 705.84 171.033C703.662 171.707 702.003 172.381 702.21 172.589C702.573 172.848 714.81 174.092 717.247 174.092C718.336 174.092 719.995 176.115 719.995 177.411C719.995 180.003 716.573 181.663 704.543 184.929C700.24 186.122 702.677 186.588 710.869 186.225C719.995 185.811 722.121 186.225 723.417 188.662C724.143 190.114 724.143 190.322 723.002 192.137C720.825 195.662 717.921 197.685 712.684 199.136C711.129 199.603 709.366 200.484 708.795 201.107L707.81 202.247L712.995 201.936C717.351 201.677 725.802 200.484 732.128 199.188C733.58 198.877 733.632 198.825 733.321 195.922C732.387 187.159 727.462 165.848 721.291 144.278C714.188 119.234 712.84 112.131 712.373 98.2864C712.01 86.1533 712.736 79.309 715.847 65.5166C717.558 57.9464 717.195 55.1983 713.721 47.8873C712.166 44.6726 708.692 39.8505 707.862 39.7986C707.655 39.7986 707.603 40.8356 707.81 42.1319ZM662.078 43.7393C662.233 43.8948 662.7 43.9467 663.063 43.7911C663.478 43.6356 663.322 43.48 662.752 43.48C662.181 43.4282 661.87 43.5837 662.078 43.7393ZM683.181 120.893C683.181 121.049 683.388 121.308 683.699 121.464C683.959 121.619 684.218 121.516 684.218 121.256C684.218 120.945 683.959 120.686 683.699 120.686C683.388 120.686 683.181 120.79 683.181 120.893ZM585.235 207.484C583.264 209.87 589.746 213.655 604.886 218.943C615.515 222.625 628.686 225.632 641.959 227.447C671.151 231.388 688.729 231.128 725.75 226.151C733.061 225.166 735.81 225.425 736.328 227.032C736.535 227.603 736.432 228.38 736.121 228.743C734.513 230.662 724.247 233.565 702.106 238.387C686.24 241.81 681.003 243.21 681.988 243.78C683.803 244.765 705.166 242.639 722.847 239.684C731.765 238.232 734.928 238.076 736.328 239.113C737.313 239.839 737.313 239.891 736.432 240.876C735.032 242.432 731.039 244.143 722.691 246.891C698.114 254.928 674.626 258.039 638.952 258.091C616.241 258.091 598.353 255.602 581.138 250.054C578.961 249.38 575.85 248.55 574.294 248.239C572.739 247.928 571.027 247.565 570.509 247.41C569.939 247.254 569.627 247.41 569.627 247.876C569.627 249.535 582.798 255.083 594.516 258.35C615.36 264.157 635.737 266.802 654.663 266.18C665.137 265.868 674.314 265.246 681.211 264.313C683.44 264.054 687.173 263.535 689.507 263.224C704.906 261.202 719.58 257.883 738.558 252.076C751.157 248.291 751.313 248.239 751.52 246.943C751.728 246.113 744.054 218.062 742.602 214.018C742.187 212.929 741.306 211.892 740.424 211.477C739.076 210.803 738.091 210.958 728.291 213.395C718.388 215.884 711.077 217.44 700.292 219.41C678.981 223.299 651.085 223.195 627.441 219.151C615.464 217.129 599.234 212.462 590.42 208.573C585.857 206.499 586.012 206.551 585.235 207.484ZM722.069 212.981C722.069 213.24 722.328 213.499 722.639 213.499C722.899 213.499 723.002 213.24 722.847 212.981C722.691 212.669 722.432 212.462 722.276 212.462C722.173 212.462 722.069 212.669 722.069 212.981ZM742.55 266.387C733.424 269.498 721.758 273.387 716.625 274.994C703.973 278.935 703.766 279.039 708.484 279.246C712.062 279.402 723.728 277.587 750.069 272.92C759.817 271.157 763.446 271.054 764.794 272.402C765.935 273.542 765.053 275.046 762.616 276.083C759.765 277.328 740.684 283.861 735.032 285.572L730.106 287.075H733.736C738.143 287.127 745.972 285.831 759.661 282.824C777.238 278.935 778.69 278.676 780.246 279.298C781.957 279.92 782.216 281.839 780.764 283.135C778.638 285.053 769.668 288.942 752.246 295.475C750.431 296.149 748.72 297.135 748.461 297.601C747.009 300.297 757.587 298.431 775.475 292.727C791.497 287.646 793.26 287.127 794.868 287.127C795.801 287.127 796.942 287.438 797.46 287.801C798.653 288.683 797.979 290.135 795.697 291.794C793.468 293.401 784.394 298.379 778.431 301.334C775.631 302.683 773.401 303.927 773.505 303.979C773.609 304.083 775.372 303.979 777.446 303.72C782.061 303.097 786.727 301.594 798.031 296.875C804.616 294.127 807.519 293.194 809.438 293.142C811.823 293.09 812.03 293.194 812.186 294.335C812.497 296.357 811.253 297.964 807.105 300.816C793.727 310.201 777.29 317.512 755.824 323.682C735.965 329.386 727.462 330.889 696.921 334.312C669.803 337.371 629.567 337.423 603.59 334.519C577.042 331.564 548.265 323.578 524.517 312.586C520.732 310.823 517.414 309.475 517.103 309.579C516.117 309.89 523.273 314.712 529.702 317.979C547.85 327.208 571.909 334.623 598.664 339.186C622.101 343.23 654.767 344.734 679.966 342.867C705.58 341 728.187 337.63 747.995 332.756C774.853 326.119 792.69 319.69 811.253 309.89C824.423 302.942 835.104 294.231 835.104 290.394C835.104 287.024 823.852 281.683 795.697 271.728C775.009 264.417 763.653 260.839 760.698 260.735C759.817 260.683 751.676 263.224 742.55 266.387ZM753.698 300.09C753.698 300.349 753.957 300.609 754.268 300.609C754.528 300.609 754.631 300.349 754.476 300.09C754.32 299.779 754.061 299.572 753.906 299.572C753.802 299.572 753.698 299.779 753.698 300.09ZM623.708 343.956C623.863 344.111 624.33 344.163 624.693 344.008C625.108 343.852 624.952 343.697 624.382 343.697C623.812 343.645 623.501 343.8 623.708 343.956Z" fill="#477865"/>
<path d="M77.736 579.828C65.78 590.608 52.452 600.212 38.144 608.64C24.032 606.484 10.508 601.78 0.316 596.096C7.96 589.04 15.8 582.964 24.228 577.28C32.068 581.396 42.064 585.12 52.844 587.668C51.08 562.776 46.376 536.512 39.124 511.032C26.972 510.836 15.016 510.64 4.432 510.64C8.744 502.996 13.448 495.94 18.544 489.864H32.46C27.952 476.928 22.856 464.188 17.172 452.232C28.932 441.648 46.376 430.28 59.704 423.42C74.404 429.104 91.456 434.2 107.528 437.924C99.884 444.98 92.044 451.056 83.616 456.74C70.484 454.192 56.568 450.076 44.024 444.98C50.492 459.484 56.372 474.772 61.076 490.452C76.756 490.844 92.436 491.432 105.96 492.216C101.648 500.056 96.944 507.112 91.848 512.992C84.204 512.6 75.776 512.208 67.152 511.816C72.836 534.748 76.56 557.68 77.736 579.828ZM134.489 595.116C129.981 592.372 122.141 586.296 116.849 581.592C118.613 567.676 119.397 554.348 119.397 509.66C119.397 466.736 119.201 448.508 118.025 427.34C120.965 427.928 124.689 429.3 127.433 430.476C133.705 427.732 140.957 424.792 147.033 423.028C145.269 442.628 144.485 461.248 144.485 496.332V558.856C144.485 565.912 145.269 567.872 159.577 577.672C151.737 584.336 143.505 590.02 134.489 595.116ZM201.475 594.332C191.479 592.96 178.347 587.08 171.095 580.024C172.271 554.348 172.859 516.324 172.859 501.624C169.919 497.508 163.059 490.844 158.747 488.1C165.607 481.436 174.819 475.164 183.835 470.656C189.127 473.792 195.399 479.084 198.731 483.788C197.947 503.976 196.771 554.936 196.771 561.208C196.771 566.5 212.843 574.732 221.859 575.516C221.859 546.508 221.663 512.208 220.879 480.064C228.719 476.34 239.107 472.616 247.927 470.264C247.143 499.86 246.947 531.612 246.947 560.032C246.947 567.284 248.123 568.46 261.059 576.888C254.591 583.552 245.967 589.628 237.539 594.332C232.835 591.392 226.171 585.316 223.231 580.024C215.979 585.904 207.159 591.784 201.475 594.332ZM326.016 473.4C324.448 479.868 322.88 488.492 322.096 494.568H302.888V506.132C302.888 525.34 303.084 542.196 303.28 556.308C303.476 564.344 305.436 566.304 325.82 576.888C318.372 583.552 309.552 589.628 300.732 594.332C289.56 589.04 280.544 583.16 275.448 578.26C277.212 562.776 277.604 541.02 277.604 511.424V494.568H262.12C266.628 487.316 271.724 480.652 277.408 474.968L276.82 452.624C285.836 446.94 295.048 442.432 305.436 438.316C304.26 448.9 303.672 459.484 303.28 473.4H326.016ZM391.668 473.4C390.1 479.868 388.532 488.492 387.748 494.568H368.54V506.132C368.54 525.34 368.736 542.196 368.932 556.308C369.128 564.344 371.088 566.304 391.472 576.888C384.024 583.552 375.204 589.628 366.384 594.332C355.212 589.04 346.196 583.16 341.1 578.26C342.864 562.776 343.256 541.02 343.256 511.424V494.568H327.772C332.28 487.316 337.376 480.652 343.06 474.968L342.472 452.624C351.488 446.94 360.7 442.432 371.088 438.316C369.912 448.9 369.324 459.484 368.932 473.4H391.668ZM443.013 594.332C430.861 590.412 416.749 583.944 404.793 576.888C402.637 541.608 402.637 513.972 404.401 493.196C417.925 484.572 432.821 476.34 447.521 469.872C456.733 479.868 466.141 496.136 471.825 512.6C463.201 521.616 444.581 534.944 428.901 544.352L429.097 550.624C429.489 559.836 430.077 561.012 438.897 565.52C444.973 568.656 457.517 573.36 468.297 576.888C460.261 583.552 452.029 589.432 443.013 594.332ZM428.313 530.24C443.209 525.34 446.345 523.576 446.345 521.616C446.345 518.088 438.309 501.428 428.901 489.472C428.313 501.036 428.117 515.344 428.313 530.24ZM526.161 470.656C534.589 474.772 543.605 481.632 549.485 488.1C546.153 495.94 538.901 508.876 534.589 514.756C528.905 508.288 519.889 500.644 511.657 494.96C511.657 519.656 512.049 538.668 512.245 556.308C512.245 564.344 514.401 566.304 534.785 576.888C527.337 583.552 518.517 589.628 509.697 594.332C498.525 589.04 489.509 583.16 484.413 578.26C486.177 562.776 486.569 541.02 486.569 503.584C483.825 498.88 476.769 491.432 472.457 488.1C479.317 481.436 488.529 475.164 497.545 470.656C502.641 475.36 508.129 482.22 511.461 487.904C515.185 482.416 521.457 475.164 526.161 470.656ZM604.063 470.656C612.491 474.772 621.507 481.632 627.387 488.1C624.055 495.94 616.803 508.876 612.491 514.756C606.807 508.288 597.791 500.644 589.559 494.96C589.559 519.656 589.951 538.668 590.147 556.308C590.147 564.344 592.303 566.304 612.687 576.888C605.239 583.552 596.419 589.628 587.599 594.332C576.427 589.04 567.411 583.16 562.315 578.26C564.079 562.776 564.471 541.02 564.471 503.584C561.727 498.88 554.671 491.432 550.359 488.1C557.219 481.436 566.431 475.164 575.447 470.656C580.543 475.36 586.031 482.22 589.363 487.904C593.087 482.416 599.359 475.164 604.063 470.656ZM631.398 541.608C637.082 537.884 644.138 533.964 651.39 530.24C644.138 522.204 637.474 510.444 633.554 499.664C642.178 490.256 660.798 476.34 673.342 469.872C686.474 471.636 701.566 477.908 710.582 484.964C708.818 504.368 707.25 538.668 709.994 561.208C710.582 566.696 711.366 567.872 715.874 571.204C718.814 572.968 722.146 574.732 724.694 575.908C716.658 582.572 708.426 588.256 699.606 593.352C695.098 591.588 689.022 588.06 685.69 584.924C684.906 580.416 684.318 574.928 683.926 569.44C676.086 578.848 664.522 587.276 647.274 593.352C639.042 579.632 632.77 557.484 631.398 541.608ZM656.486 489.276C658.838 500.84 664.718 513.58 673.342 526.124C660.798 534.16 658.838 535.924 658.838 538.864C658.838 546.116 663.15 562.972 669.814 573.556C674.714 568.656 680.006 560.816 683.338 552.388C683.338 529.26 684.318 509.268 684.318 503.584C684.318 497.508 668.638 490.06 656.486 489.276ZM821.734 423.42C839.178 428.908 859.366 434.004 878.574 437.924C870.93 444.98 863.09 451.056 854.662 456.74C838.59 453.604 821.93 449.684 806.642 445.176C804.094 464.776 802.526 487.512 802.526 510.248C802.526 524.752 803.31 539.256 804.682 552.976C805.466 558.464 806.25 559.64 811.15 561.796C822.714 566.5 836.826 570.812 851.33 574.144C851.722 564.344 851.918 553.564 851.918 542.196C851.918 535.532 851.722 527.692 851.722 521.616C851.526 516.128 850.742 515.148 845.45 513.776C835.062 511.228 824.086 509.072 813.306 507.504C820.95 500.448 828.79 494.372 837.218 488.688C855.054 491.432 873.086 495.548 888.57 500.252C884.846 503.78 881.122 506.916 877.202 509.856C877.398 517.892 877.594 527.3 877.594 534.944C877.594 555.524 877.398 575.516 876.418 595.9C868.382 602.76 856.818 610.796 848.782 615.108C849.762 606.288 850.546 594.724 851.134 581.396C845.646 585.904 839.962 590.216 833.886 594.332C813.698 590.608 793.902 584.336 779.594 577.28C777.634 561.012 776.654 543.176 776.654 525.732C776.654 493 779.398 464.384 785.082 444.784C796.254 436.356 808.406 429.692 821.734 423.42ZM895.156 541.608C900.84 537.884 907.896 533.964 915.148 530.24C907.896 522.204 901.232 510.444 897.312 499.664C905.936 490.256 924.556 476.34 937.1 469.872C950.232 471.636 965.324 477.908 974.34 484.964C972.576 504.368 971.008 538.668 973.752 561.208C974.34 566.696 975.124 567.872 979.632 571.204C982.572 572.968 985.904 574.732 988.452 575.908C980.416 582.572 972.184 588.256 963.364 593.352C958.856 591.588 952.78 588.06 949.448 584.924C948.664 580.416 948.076 574.928 947.684 569.44C939.844 578.848 928.28 587.276 911.032 593.352C902.8 579.632 896.528 557.484 895.156 541.608ZM920.244 489.276C922.596 500.84 928.476 513.58 937.1 526.124C924.556 534.16 922.596 535.924 922.596 538.864C922.596 546.116 926.908 562.972 933.572 573.556C938.472 568.656 943.764 560.816 947.096 552.388C947.096 529.26 948.076 509.268 948.076 503.584C948.076 497.508 932.396 490.06 920.244 489.276ZM1115.35 594.332C1111.23 591.784 1103.78 586.1 1099.67 581.592C1100.84 564.148 1101.82 529.456 1101.82 503.976C1101.82 498.684 1085.16 492.02 1076.34 491.628C1076.34 522.4 1076.54 553.76 1077.32 584.532C1069.48 588.256 1059.09 591.98 1050.27 594.332C1051.06 564.148 1051.25 533.768 1051.25 503.976C1051.25 498.684 1034.59 492.02 1025.77 491.628C1025.77 522.596 1025.97 553.564 1026.75 584.532C1018.91 588.256 1008.53 591.98 999.706 594.332C1000.49 564.148 1000.69 533.768 1000.69 503.584C997.942 498.88 990.886 491.432 986.574 488.1C993.434 481.436 1002.65 475.164 1011.66 470.656C1016.76 473.988 1021.85 479.868 1024.99 484.964C1032.24 479.084 1040.87 473.4 1046.55 470.852C1056.94 472.224 1069.68 476.928 1077.32 483.592C1084.18 478.3 1091.83 473.204 1097.12 470.852C1107.11 472.028 1120.05 476.928 1127.3 483.004C1126.13 510.444 1125.54 544.156 1125.54 560.228C1125.54 567.48 1126.71 568.656 1138.87 576.888C1131.81 583.552 1123.58 589.628 1115.35 594.332ZM1190.45 594.332C1178.3 590.412 1164.19 583.944 1152.23 576.888C1150.08 541.608 1150.08 513.972 1151.84 493.196C1165.37 484.572 1180.26 476.34 1194.96 469.872C1204.17 479.868 1213.58 496.136 1219.27 512.6C1210.64 521.616 1192.02 534.944 1176.34 544.352L1176.54 550.624C1176.93 559.836 1177.52 561.012 1186.34 565.52C1192.41 568.656 1204.96 573.36 1215.74 576.888C1207.7 583.552 1199.47 589.432 1190.45 594.332ZM1175.75 530.24C1190.65 525.34 1193.79 523.576 1193.79 521.616C1193.79 518.088 1185.75 501.428 1176.34 489.472C1175.75 501.036 1175.56 515.344 1175.75 530.24ZM1222.64 575.516C1225.97 567.872 1232.25 558.072 1238.13 551.016C1247.14 560.424 1260.08 570.224 1272.03 576.104C1272.03 562.58 1269.68 548.664 1265.17 538.276C1262.82 532.984 1261.65 532.004 1260.08 532.004C1257.92 532.004 1249.69 534.356 1232.83 541.02C1228.13 528.672 1228.72 506.132 1231.27 490.648C1239.69 483.984 1254.79 475.36 1266.74 470.46C1275.95 473.204 1288.5 478.692 1295.75 482.612C1291.83 489.472 1284.58 498.88 1278.7 504.956C1272.43 500.448 1262.63 494.764 1253.61 490.452C1252.83 499.664 1253.02 509.856 1254.79 517.892C1255.57 521.616 1256.35 522.988 1257.92 522.988C1260.08 522.988 1265.96 521.224 1284.97 513.972C1293.2 527.104 1296.93 550.036 1295.75 571.4C1284.97 580.416 1268.51 590.02 1255.18 594.332C1244.01 590.412 1231.27 582.768 1222.64 575.516Z" fill="url(#paint0_linear_8_22)"/>
<defs>
<linearGradient id="paint0_linear_8_22" x1="654" y1="591" x2="654" y2="460" gradientUnits="userSpaceOnUse">
<stop stop-color="#61A38A" stop-opacity="0.75"/>
<stop offset="0.265" stop-color="#61A38A"/>
<stop offset="1" stop-color="#477865"/>
</linearGradient>
</defs>
</svg>
